<svg width="283" height="195" viewBox="0 0 283 195" fill="none" xmlns="http://www.w3.org/2000/svg">
<path d="M1.01923 163.537C0.863525 164.583 1.61345 169.699 4.74114 186.386C5.99165 193.057 5.8411 202.306 26.3983 178.091C46.9555 153.877 87.6847 95.9977 111.346 60.7298C135.008 25.462 140.368 14.5591 143.241 8.41007C146.115 2.26105 146.339 1.19629 145.542 1.0216C142.92 0.446971 132.46 11.3767 116.516 29.2437C108.847 37.8374 103.258 46.5241 98.0422 54.9514C87.9558 71.248 79.4667 86.5 79.4667 99.5781C79.4667 105.445 80.1959 110.041 82.8995 114.331C85.6032 118.622 89.7927 122.449 97.5042 126.707C105.216 130.966 116.322 135.539 130.575 139.243C144.829 142.947 161.892 145.642 178.324 147.117C194.755 148.591 210.039 148.762 223.465 148.209C236.891 147.655 247.998 146.371 256.58 144.822C270.883 141.498 278.72 138.584 281.849 136.407" stroke="white" stroke-width="2" stroke-linecap="round"/>
</svg>
